<svg width="17" height="18" viewBox="0 0 17 18" fill="none" xmlns="http://www.w3.org/2000/svg">
<path d="M3.12369 18H12.9378C14.6603 18 16.0615 16.5988 16.0615 14.8763V5.53846C16.0615 5.23385 15.8123 4.98462 15.5077 4.98462H12.1846V4.15385C12.1846 1.86369 10.3209 0 8.03077 0C5.74062 0 3.87692 1.86369 3.87692 4.15385V4.98462H0.553846C0.249231 4.98462 0 5.23385 0 5.53846V14.8763C0 16.5988 1.40123 18 3.12369 18ZM4.98462 4.15385C4.98462 2.47292 6.34985 1.10769 8.03077 1.10769C9.71169 1.10769 11.0769 2.47292 11.0769 4.15385V4.98462H4.98462V4.15385ZM1.10769 6.09231H3.87692V7.47692C3.87692 7.78154 4.12615 8.03077 4.43077 8.03077C4.73538 8.03077 4.98462 7.78154 4.98462 7.47692V6.09231H11.0769V7.47692C11.0769 7.78154 11.3262 8.03077 11.6308 8.03077C11.9354 8.03077 12.1846 7.78154 12.1846 7.47692V6.09231H14.9538V14.8763C14.9538 15.9868 14.0483 16.8923 12.9378 16.8923H3.12369C2.01323 16.8923 1.10769 15.9868 1.10769 14.8763V6.09231Z" fill="#393D46"/>
</svg>
