<svg width="18" height="18" viewBox="0 0 18 18" fill="none" xmlns="http://www.w3.org/2000/svg">
<path d="M8.19769 16.3921C10.1779 16.3921 11.9967 15.6837 13.4168 14.5107L16.7117 17.8056C16.8402 17.9341 17.0082 18 17.1763 18C17.3443 18 17.5124 17.9341 17.6409 17.8056C17.8979 17.5486 17.8979 17.1301 17.6409 16.8731L14.3591 13.5914C15.6244 12.1483 16.3921 10.2603 16.3921 8.19769C16.3921 3.6771 12.715 0 8.1944 0C3.67381 0 0 3.67381 0 8.1944C0 12.715 3.6771 16.3921 8.19769 16.3921ZM8.19769 1.31466C11.9901 1.31466 15.0774 4.39868 15.0774 8.1944C15.0774 11.9901 11.9901 15.0741 8.19769 15.0741C4.40527 15.0741 1.31796 11.9868 1.31796 8.1944C1.31796 4.40198 4.40527 1.31466 8.19769 1.31466Z" fill="#393D46"/>
</svg>
